<svg id="Capa_1" enable-background="new 0 0 512.003 512.003" height="512" viewBox="0 0 512.003 512.003" width="512" xmlns="http://www.w3.org/2000/svg"><g><path d="m66.836 261.218 170.602-150.575c10.606-9.361 26.521-9.361 37.127 0l170.602 150.575-101.627 176.97-235.071-89.138z" fill="#ffe07d"/><path d="m445.167 261.218-14.425-12.731-99.299 66.226c-9.617 6.414-21.088 9.34-32.625 8.611-.588-.037-1.179-.056-1.772-.056h-82.09c-.593 0-1.184.019-1.772.056-11.537.729-23.007-2.197-32.625-8.611l-99.299-66.226-14.425 12.731 41.634 87.832 58.274 22.097 176.797 67.04 21.921-38.172z" fill="#ffd064"/><path d="m451.388 504.503h-390.774c-6.192 0-11.212-5.02-11.212-11.212v-222.745c0-8.956 9.982-14.297 17.433-9.328l189.166 126.162 189.166-126.162c7.451-4.969 17.433.372 17.433 9.328v222.745c0 6.192-5.019 11.212-11.212 11.212z" fill="#ffc250"/><g><path d="m445.167 261.218-4.788 3.193c1.131 1.723 1.811 3.805 1.811 6.135v222.745c0 6.192-5.02 11.212-11.212 11.212h20.41c6.192 0 11.212-5.02 11.212-11.212v-222.745c0-8.956-9.982-14.297-17.433-9.328z" fill="#ebb044"/></g><path d="m426.89 504.503h-341.777l106.701-152.481c5.285-7.553 13.924-12.051 23.142-12.051h82.09c9.219 0 17.857 4.499 23.142 12.051z" fill="#e27d47"/><path d="m320.189 352.021c-5.285-7.553-13.924-12.051-23.142-12.051h-27.306c9.219 0 17.857 4.499 23.142 12.051l106.701 152.481h27.306z" fill="#dd544f"/><path d="m226.027 195.521-20.869 6.608-31.373 9.934 15.214 48.051 15.271 48.229c2.338 7.385 10.22 11.476 17.605 9.138l4.631-1.466c7.385-2.338 11.476-10.22 9.138-17.605l-10.459-33.033c-1.047-3.305-.087-6.918 2.462-9.268l9.419-8.685c2.549-2.35 3.509-5.963 2.462-9.268z" fill="#365e7d"/><path d="m173.784 212.063 9.564 30.206 52.243-16.541-9.564-30.207-20.87 6.608z" fill="#2b4d66"/><path d="m254.838 198.469 112.878 9.915-60.743-191.842-86.601 73.076-15.684 18.361 24.625 77.772z" fill="#e27d47"/><path d="m254.838 198.469-87.225 27.618c-8.169 2.587-16.888-1.939-19.474-10.108l-25.099-79.27c-2.587-8.169 1.939-16.888 10.108-19.474l87.225-27.618z" fill="#f6f1f1"/><path d="m219.35 89.776h18.692v114.178h-18.692z" fill="#dae4ea" transform="matrix(.953 -.302 .302 .953 -33.665 75.886)"/><path d="m291.307 29.761 55.99 176.83 20.419 1.793-60.743-191.842z" fill="#dd544f"/><path d="m120.242 214.247 24.857-7.87-19.018-60.062-24.857 7.87c-16.586 5.252-25.774 22.954-20.522 39.54 5.252 16.585 22.954 25.773 39.54 20.522z" fill="#e27d47"/><path d="m188.892 134.429-19.927 6.31c-7.31 2.315-15.113-1.735-17.428-9.045l-5.836-18.432 46.4-14.692 5.836 18.432c2.315 7.31-1.735 15.113-9.045 17.427z" fill="#e27d47"/><path d="m175.875 103.707 5.836 18.432c2.315 7.31-1.735 15.113-9.045 17.428l16.225-5.138c7.31-2.315 11.36-10.117 9.045-17.428l-5.836-18.432z" fill="#dd544f"/><g><path d="m462.601 400.967c4.143 0 7.5-3.357 7.5-7.5v-122.921c0-6.914-3.787-13.236-9.884-16.499-4.255-2.276-9.124-2.784-13.634-1.584l-79.166-69.872c-4.754-15.013-47.238-149.189-53.293-168.314 0-.001-.001-.002-.001-.003l-2.861-9.036c-1.251-3.949-5.466-6.138-9.414-4.886-3.949 1.25-6.137 5.465-4.887 9.414l1.352 4.27-39.214 33.091-.083-.262c-1.25-3.949-5.463-6.135-9.414-4.886-3.949 1.25-6.136 5.465-4.886 9.415l1.966 6.21-30.002 25.316c-19.708 6.24-66.1 20.929-85.796 27.165-5.861 1.856-10.648 5.883-13.48 11.339s-3.37 11.689-1.514 17.55l.777 2.454-9.889 3.131-.299-.944c-1.25-3.949-5.466-6.138-9.414-4.886-3.949 1.25-6.136 5.465-4.886 9.414l.481 1.521c-16.446 8.593-24.9 28.035-19.109 46.324 4.113 12.989 14.434 22.322 26.659 25.769l-34.79 30.706c-4.51-1.201-9.38-.692-13.635 1.584-6.097 3.262-9.884 9.584-9.884 16.499v222.744c0 10.318 8.394 18.713 18.712 18.713h390.774c10.317 0 18.712-8.395 18.712-18.713v-69.836c0-4.143-3.357-7.5-7.5-7.5s-7.5 3.357-7.5 7.5v69.836c0 2.047-1.665 3.713-3.712 3.713h-20.594l-103.617-148.077 122.152-81.468c1.67-1.116 3.222-.501 3.812-.185.59.315 1.961 1.266 1.961 3.272v122.921c0 4.144 3.357 7.501 7.5 7.501zm-29.707-140.578-116.571 77.747c-5.68-3.639-12.349-5.666-19.276-5.666h-82.091c-6.927 0-13.595 2.027-19.276 5.665l-116.571-77.746 38.318-33.819c1.853 2.523 5.169 3.705 8.309 2.709 3.949-1.25 6.136-5.465 4.886-9.414l-.299-.943 9.889-3.131.777 2.454c3.819 12.06 16.752 18.835 28.888 14.993l2.493-.789 7.906 24.968c1.012 3.195 3.965 5.238 7.148 5.238.75 0 1.513-.114 2.266-.353 3.949-1.25 6.137-5.465 4.886-9.414l-7.905-24.968 37.943-12.014 7.762 24.513c.167.529.012 1.114-.396 1.49l-9.418 8.685c-4.667 4.303-6.444 10.994-4.528 17.046l10.459 33.032c1.086 3.431-.821 7.105-4.251 8.191l-4.632 1.466c-3.448 1.09-7.103-.82-8.19-4.251l-7.732-24.421c-1.25-3.949-5.464-6.137-9.414-4.887-3.949 1.251-6.136 5.466-4.886 9.414l7.732 24.421c2.941 9.291 11.511 15.039 20.497 15.039 2.184 0 4.38-.336 6.521-1.015l4.632-1.466c11.315-3.584 17.606-15.705 14.023-27.02l-10.459-33.032c-.167-.529-.012-1.114.396-1.491l9.418-8.684c4.667-4.303 6.445-10.994 4.528-17.046l-7.761-24.513 16.76-5.307 39.104 3.435 1.967 6.211c1.012 3.196 3.966 5.238 7.148 5.238.75 0 1.513-.113 2.266-.352 3.949-1.25 6.137-5.465 4.887-9.415l-.083-.261 51.114 4.49 1.352 4.27c1.012 3.196 3.966 5.238 7.148 5.238.75 0 1.513-.113 2.266-.352 3.949-1.25 6.137-5.465 4.887-9.414l-1.52-4.801zm-129.678-230.864 53.956 170.404-51.114-4.49-42.056-132.824zm-13.342 164.493-29.395-2.582-15.723-49.656-15.723-49.656 22.552-19.03zm-99.087-74.753c1.063 3.356-.803 6.951-4.159 8.014l-19.927 6.31c-3.355 1.067-6.95-.803-8.014-4.159l-3.572-11.282 18.992-6.014 13.108-4.15zm-60.07 9.07c.986-1.9 2.653-3.302 4.695-3.949l5.402-1.711 3.572 11.282c2.882 9.102 11.324 14.931 20.4 14.931 2.133 0 4.302-.322 6.441-.999l19.927-6.31c11.241-3.56 17.49-15.601 13.931-26.842l-3.572-11.282 13.971-4.424c3.133 9.896 27.434 86.643 29.938 94.551-12.304 3.896-70.46 22.31-80.074 25.354-4.212 1.336-8.727-1.008-10.061-5.221l-25.099-79.27c-.644-2.04-.456-4.21.529-6.11zm-9.522 27.393 11.443 36.137 3.047 9.624-9.889 3.131-14.49-45.762zm-33.343 35.732c-3.282-10.365.871-21.332 9.452-27.132l13.894 43.88c-10.356.195-20.064-6.383-23.346-16.748zm11.663 305.543 17.722-25.325c2.375-3.394 1.549-8.07-1.845-10.444-3.394-2.375-8.07-1.55-10.445 1.845l-23.74 33.925h-20.593c-2.047 0-3.712-1.666-3.712-3.713v-222.745c0-2.007 1.371-2.957 1.961-3.272.589-.316 2.143-.93 3.811.184l122.153 81.468-62.674 89.565c-2.375 3.394-1.549 8.07 1.845 10.444 3.393 2.374 8.069 1.549 10.445-1.845l63.517-90.769c3.878-5.543 10.232-8.852 16.997-8.852h82.091c6.765 0 13.118 3.309 16.997 8.852l98.444 140.682z"/><path d="m382.384 90.562c.768 3.506 3.872 5.897 7.319 5.897.531 0 1.071-.057 1.611-.175l31.32-6.86c4.047-.886 6.608-4.885 5.722-8.931s-4.883-6.609-8.931-5.722l-31.32 6.86c-4.046.886-6.608 4.885-5.721 8.931z"/><path d="m354.429 57.665c1.253.802 2.654 1.186 4.039 1.186 2.471 0 4.891-1.22 6.322-3.455l17.296-26.999c2.234-3.488 1.218-8.127-2.27-10.361-3.489-2.234-8.128-1.219-10.361 2.27l-17.296 26.999c-2.234 3.487-1.218 8.126 2.27 10.36z"/><path d="m389.25 131.321c-3.489-2.234-8.127-1.218-10.361 2.27s-1.218 8.127 2.27 10.361l26.998 17.296c1.253.802 2.654 1.186 4.039 1.186 2.471 0 4.891-1.22 6.322-3.455 2.234-3.488 1.218-8.127-2.27-10.361z"/></g></g></svg>