<svg height="512pt" viewBox="0 0 512.24773 512" width="512pt" xmlns="http://www.w3.org/2000/svg"><path d="m136.121094 8.125h240c8.835937 0 16 7.164062 16 16v464c0 8.835938-7.164063 16-16 16h-240c-8.835938 0-16-7.164062-16-16v-464c0-8.835938 7.164062-16 16-16zm0 0" fill="#eee"/><path d="m120.121094 72.125h272v336h-272zm0 0" fill="#9fa8da"/><g fill="#ffe082"><path d="m56.121094 104.125c0 13.253906-10.746094 24-24 24-13.257813 0-24-10.746094-24-24 0-13.257812 10.742187-24 24-24 13.253906 0 24 10.742188 24 24zm0 0"/><path d="m480.121094 72.125c0 13.253906-10.746094 24-24 24-13.257813 0-24-10.746094-24-24 0-13.257812 10.742187-24 24-24 13.253906 0 24 10.742188 24 24zm0 0"/><path d="m504.121094 288.125c0 13.253906-10.746094 24-24 24-13.257813 0-24-10.746094-24-24 0-13.257812 10.742187-24 24-24 13.253906 0 24 10.742188 24 24zm0 0"/><path d="m72.121094 384.125c0 13.253906-10.746094 24-24 24-13.257813 0-24-10.746094-24-24 0-13.257812 10.742187-24 24-24 13.253906 0 24 10.742188 24 24zm0 0"/><path d="m392.121094 257.203125v-34.160156l-32.074219-11.40625-10.328125-24.855469 14.617188-30.746094-24.160157-24.160156-30.710937 14.648438-24.855469-10.296876-11.410156-32.101562h-34.160157l-11.40625 32.070312-24.855468 10.328126-30.746094-14.617188-24.152344 24.160156 14.640625 30.714844-10.296875 24.855469-32.101562 11.40625v34.160156l32.070312 11.410156 10.328125 24.855469-14.640625 30.742188 24.152344 24.152343 30.746094-14.640625 24.855468 10.296875 11.40625 32.105469h34.160157l11.410156-32.074219 24.855469-10.328125 30.742187 14.609375 24.160157-24.152343-14.648438-30.710938 10.296875-24.855469zm-136 6.921875c-13.257813 0-24-10.746094-24-24 0-13.257812 10.742187-24 24-24 13.253906 0 24 10.742188 24 24 0 13.253906-10.746094 24-24 24zm0 0"/></g><path d="m256.121094 176.125c-35.347656 0-64 28.652344-64 64 0 35.34375 28.652344 64 64 64 35.34375 0 64-28.65625 64-64-.039063-35.332031-28.671875-63.960938-64-64zm0 88c-13.257813 0-24-10.746094-24-24 0-13.257812 10.742187-24 24-24 13.253906 0 24 10.742188 24 24 0 13.253906-10.746094 24-24 24zm0 0" fill="#ff8a65"/><path d="m304.121094 32.125h16v16h-16zm0 0"/><path d="m192.121094 32.125h16v16h-16zm0 0"/><path d="m224.121094 32.125h64v16h-64zm0 0"/><path d="m256.121094 480.125c13.253906 0 24-10.746094 24-24 0-13.257812-10.746094-24-24-24-13.257813 0-24 10.742188-24 24 0 13.253906 10.742187 24 24 24zm0-32c4.417968 0 8 3.582031 8 8s-3.582032 8-8 8c-4.417969 0-8-3.582031-8-8s3.582031-8 8-8zm0 0"/><path d="m392.121094 160.125h59.3125l24-24h36.6875v-16h-43.3125l-24 24h-35.296875l35.960937-41.960938c3.410156 1.261719 7.011719 1.921876 10.648438 1.960938 15.273437.167969 28.585937-10.367188 31.929687-25.269531 3.347657-14.902344-4.183593-30.117188-18.0625-36.496094-13.882812-6.375-30.328125-2.179687-39.457031 10.070313-9.128906 12.246093-8.449219 29.207031 1.628906 40.6875l-32.039062 37.40625v-106.398438c0-13.257812-10.746094-24-24-24h-240c-13.257813 0-24 10.742188-24 24v100.6875l-28.6875-28.6875h-20.449219c-4.027344-15.605469-19.03125-25.777344-35.015625-23.746094-15.988281 2.03125-27.96875 15.628906-27.96875 31.746094 0 16.113281 11.980469 29.714844 27.96875 31.742188 15.984375 2.03125 30.988281-8.140626 35.015625-23.742188h13.824219l40 40h23.671875l-2.25 2.246094 15.488281 32.632812-2.117188 5.121094h-60.167968l-32-32h-59.3125v16h52.6875l32 32h53.390625l-26.078125 9.269531v22.730469h-112v16h65.597656l-30.03125 48h-35.566406v16h44.429687l40-64h27.570313v6.726562l34.039062 12.105469 7.558594 18.285157-5.152344 10.882812h-48.382812l-39.085938 50.808594c-4.082031-1.84375-8.503906-2.800782-12.976562-2.808594-17.675782 0-32 14.324219-32 32 0 17.671875 14.324218 32 32 32 17.671875 0 32-14.328125 32-32-.019532-6.945312-2.320313-13.691406-6.546875-19.199219l34.480469-44.800781h4.066406v168c0 13.253906 10.742187 24 24 24h240c13.253906 0 24-10.746094 24-24v-109.335938l28 37.335938h84v-16h-76l-48-64h-24.359375l10.246093-10.25-14.136718-29.75h36.128906l40 56h76.121094v-16h-67.882813l-28.574219-40h33.601563c4.027344 15.601562 19.027344 25.773438 35.015625 23.742188 15.984375-2.027344 27.964844-15.628907 27.964844-31.742188 0-16.117188-11.980469-29.714844-27.964844-31.746094-15.988281-2.03125-30.988281 8.140625-35.015625 23.746094h-85.328125l2.140625-5.167969 34.042969-12.105469v-45.457031l-26.082032-9.269531h138.082032v-16h-151.496094l-2.121094-5.121094 12.816406-26.878906zm64-104c8.835937 0 16 7.164062 16 16s-7.164063 16-16 16c-8.835938 0-16-7.164062-16-16s7.164062-16 16-16zm-424 64c-8.835938 0-16-7.164062-16-16s7.164062-16 16-16c8.835937 0 16 7.164062 16 16s-7.164063 16-16 16zm16 280c-8.835938 0-16-7.164062-16-16s7.164062-16 16-16c8.835937 0 16 7.164062 16 16s-7.164063 16-16 16zm432-128c8.835937 0 16 7.164062 16 16s-7.164063 16-16 16c-8.835938 0-16-7.164062-16-16s7.164062-16 16-16zm-352-248c0-4.417969 3.582031-8 8-8h240c4.417968 0 8 3.582031 8 8v40h-256zm256 464c0 4.417969-3.582032 8-8 8h-240c-4.417969 0-8-3.582031-8-8v-72h256zm-4-136 4 5.335938v42.664062h-256v-80h12.839844l-2.730469 5.75 32.136719 32.136719 32.625-15.488281 18.296874 7.578124 12.109376 34.023438h45.441406l12.113281-34.042969 18.292969-7.574219 32.625 15.503907 6.25-6.246094v.359375zm4-123.433594v22.863282l-30.105469 10.714843-13.015625 31.453125 13.710938 28.800782-16.191407 16.191406-28.800781-13.710938-31.429688 13.015625-10.738281 30.105469h-22.863281l-10.703125-30.105469-31.464844-13.015625-28.800781 13.710938-16.191406-16.191406 13.710937-28.800782-13.015625-31.421875-30.101562-10.746093v-22.863282l30.101562-10.710937 13.015625-31.457031-13.710937-28.800782 16.191406-16.191406 28.800781 13.710938 31.433594-13.015626 10.734375-30.101562h22.863281l10.707031 30.101562 31.460938 13.015626 28.800781-13.710938 16.191407 16.191406-13.710938 28.800782 13.015625 31.425781zm-42.25-106.457031-32.625 15.488281-18.292969-7.574218-12.113281-34.023438h-45.441406l-12.109376 34.039062-18.296874 7.574219-32.625-15.503906-13.886719 13.890625h-28.359375v-56h256v64h-20.359375zm0 0"/><path d="m256.121094 168.125c-39.765625 0-72 32.234375-72 72 0 39.761719 32.234375 72 72 72 39.761718 0 72-32.238281 72-72-.046875-39.746094-32.253906-71.957031-72-72zm0 128c-30.929688 0-56-25.074219-56-56 0-30.929688 25.070312-56 56-56 30.925781 0 56 25.070312 56 56-.035156 30.914062-25.089844 55.964844-56 56zm0 0"/><path d="m256.121094 208.125c-17.675782 0-32 14.324219-32 32 0 17.671875 14.324218 32 32 32 17.671875 0 32-14.328125 32-32 0-17.675781-14.328125-32-32-32zm0 48c-8.835938 0-16-7.164062-16-16s7.164062-16 16-16c8.835937 0 16 7.164062 16 16s-7.164063 16-16 16zm0 0"/></svg>